PathFileType	4	(X/Y/Z)	C:\Users\WrightLab\Desktop\Jo\P5V29.trc
DataRate	CameraRate	NumFrames	NumMarkers	Units	OrigDataRate	OrigDataStartFrame	OrigNumFrames
100.00	100.00	       29	19	mm	100.00	190	       759
Frame#	Time	Headset_Front			Headset_Back			Headset_Left			Headset_Right			Left_Shoulder			Right_Shoulder			Sternum			C7			Left Elbow			Right Elbow			Left Wrist			Right Wrist			Left ASIS			Right ASIS			S2			Left Knee			Right Knee			Left Ankle			Right Ankle			
		X1	Y1	Z1	X2	Y2	Z2	X3	Y3	Z3	X4	Y4	Z4	X5	Y5	Z5	X6	Y6	Z6	X7	Y7	Z7	X8	Y8	Z8	X9	Y9	Z9	X10	Y10	Z10	X11	Y11	Z11	X12	Y12	Z12	X13	Y13	Z13	X14	Y14	Z14	X15	Y15	Z15	X16	Y16	Z16	X17	Y17	Z17	X18	Y18	Z18	X19	Y19	Z19	

190	1.890																												-509.88586	1145.69153	-1295.55225	39.41734	959.65930	-1255.14856	-478.22610	1003.72870	-1107.16235				-315.19861	910.40680	-1200.36731				-39.74772	463.34073	-1285.94812	-342.96362	507.20029	-1094.38196				-385.54443	105.67293	-1231.95032	
191	1.900																												-510.03195	1145.34448	-1291.75232	38.56854	959.43329	-1249.21167	-479.70282	1003.37195	-1103.92822				-315.09372	910.92877	-1195.98865				-43.17758	462.34512	-1285.99048	-342.80164	508.10965	-1089.36108				-384.83765	103.28894	-1218.63879	
192	1.910																												-510.60361	1145.02820	-1288.52087	36.90210	959.61719	-1243.76270	-480.71204	1002.93286	-1101.12183				-314.65347	910.59100	-1192.94458				-45.27656	462.15079	-1281.93530	-341.06650	509.38571	-1084.11462				-382.07010	101.31424	-1205.37341	
193	1.920																												-510.69168	1144.22498	-1284.78088	35.78272	959.89929	-1238.83398	-481.56421	1002.52386	-1097.50195				-314.37158	909.82532	-1190.31995				-46.97939	462.19702	-1278.99670	-340.48032	509.62460	-1080.72375				-382.15482	99.68193	-1191.52515	
194	1.930																												-511.29831	1144.32544	-1281.45081	33.79393	960.81073	-1234.74146	-482.36795	1002.01947	-1094.91101				-314.66492	908.74725	-1186.56543				-49.63934	463.54428	-1273.29871	-340.27313	510.59854	-1076.70740				-380.47888	97.56480	-1176.38599	
195	1.940																												-511.68320	1144.06848	-1278.04224	32.52095	961.04126	-1229.79993	-483.54608	1001.37665	-1090.77942				-314.71344	908.45441	-1183.31201				-51.09420	462.35513	-1272.67712	-339.74036	511.40149	-1072.79504				-378.90289	95.45836	-1162.83105	
196	1.950																												-511.77728	1143.72998	-1274.19153	30.75550	961.06757	-1224.50488	-484.06897	1000.56677	-1087.66553				-315.85428	909.81250	-1175.66406				-52.17813	459.94919	-1276.94434	-339.55164	511.14438	-1069.23279				-377.32596	93.78378	-1148.06396	
197	1.960																												-512.22186	1143.97754	-1270.94373	29.35444	960.40717	-1217.98413	-484.91678	999.65057	-1083.84412				-315.88892	908.85602	-1173.73840				-56.07669	460.44116	-1272.41565	-338.78888	511.80969	-1064.50342				-375.06757	92.32343	-1133.95740	
198	1.970																												-512.78510	1143.28735	-1266.67944	28.05133	960.85852	-1213.75964	-486.28302	998.81720	-1079.15979				-316.61154	907.82227	-1168.75940				-57.28075	459.40106	-1272.53088	-338.72562	511.73816	-1060.60767				-373.92844	91.05379	-1119.58154	
199	1.980																												-512.89935	1143.34509	-1263.03479	26.38486	960.35492	-1207.30640	-487.45090	999.05585	-1075.57666				-317.06207	907.85614	-1167.03064				-58.42991	459.35632	-1269.47998	-338.93958	511.64206	-1056.28516				-371.62881	90.55122	-1105.08325	
200	1.990																												-513.87219	1142.48010	-1258.17493	25.24320	960.35931	-1201.43774	-488.73492	998.30884	-1071.48486				-317.40546	907.62775	-1164.74268				-60.80922	460.42865	-1263.32031	-339.61087	511.04712	-1053.36792				-369.76428	88.87234	-1092.50696	
201	2.000																												-513.89368	1142.49426	-1254.37073	23.91297	960.75464	-1196.32703	-493.23090	1000.00787	-1066.85132				-317.83878	908.03912	-1151.05872				-62.56750	458.87045	-1259.29138	-340.54126	510.64261	-1049.28015				-368.25656	88.84907	-1078.29773	
202	2.010																												-514.50793	1141.72192	-1249.84387	22.96934	960.26031	-1189.45239	-490.59158	996.86395	-1063.06226				-319.50433	907.40118	-1146.06409				-63.80272	458.21545	-1255.40320	-340.41574	510.18109	-1045.60437				-365.81393	88.23182	-1064.82080	
203	2.020																												-515.08881	1141.63708	-1245.16370	21.71794	959.96515	-1183.26782	-491.05002	996.42334	-1059.13342				-319.49905	907.02728	-1142.26770				-66.21311	460.63696	-1248.49207	-341.40750	509.77454	-1041.30298				-364.67017	87.35385	-1053.00891	
204	2.030																												-515.71283	1141.01221	-1240.56543	20.59120	960.18439	-1178.03394	-493.22342	996.30280	-1053.17847				-319.86090	906.01416	-1145.60803				-67.76608	458.83002	-1247.00464	-342.45331	508.67368	-1037.51794				-363.20978	87.62205	-1039.64758	
205	2.040																												-516.38879	1140.75671	-1235.95044	19.43135	959.72430	-1171.15710	-494.41220	995.84210	-1048.95837				-318.91479	907.73859	-1128.97888				-68.93662	456.07990	-1247.91687	-342.62790	507.78683	-1034.05432				-361.92728	86.56390	-1027.86194	
206	2.050																												-516.96387	1140.12463	-1230.97021	18.37117	959.15521	-1164.59827	-496.16971	995.90533	-1044.12512				-319.58725	904.55261	-1134.62964				-71.33116	457.03528	-1241.88318	-343.96494	506.02783	-1030.32190				-360.99188	86.77876	-1015.61884	
207	2.060																												-517.82172	1139.39172	-1225.74023	16.82694	959.05450	-1159.23804	-497.56812	994.29413	-1038.50244				-320.53128	904.60944	-1124.76526				-73.05983	456.22943	-1237.58533	-344.99835	505.64789	-1026.96533				-361.01761	87.30311	-1005.13916	
208	2.070																												-518.73187	1138.89978	-1220.68884	13.51040	954.93219	-1157.68689	-498.16589	993.28082	-1033.31091				-320.90112	903.55164	-1118.66162				-73.56728	457.20578	-1228.57861	-346.10287	504.55975	-1022.73523				-359.04175	86.13931	-993.75360	
209	2.080																												-519.62372	1138.49585	-1215.23804	14.88732	958.05914	-1145.81921	-500.20450	993.82520	-1028.08044				-321.28720	903.35236	-1113.16357				-74.42913	456.72940	-1225.70044	-345.84076	501.71347	-1018.42633				-358.27539	87.20808	-983.56024	
210	2.090																												-520.51233	1137.76978	-1209.65198	13.71980	957.48895	-1140.30737	-501.05453	992.90723	-1023.10345				-320.95218	903.23480	-1102.07275				-75.38913	455.30011	-1220.43091	-346.57031	500.96713	-1015.50830				-357.70709	85.17621	-975.30579	
211	2.100																												-521.93719	1136.81409	-1204.07581	12.56883	956.07855	-1132.94897	-506.41162	994.32196	-1015.82074				-323.91983	901.49481	-1100.21741				-77.29346	453.71661	-1218.02051	-346.63617	499.16190	-1010.89667				-356.11957	85.42038	-965.27295	
212	2.110																												-522.75116	1135.57581	-1198.13757	11.75922	955.15906	-1126.19409	-507.81726	993.36420	-1010.22150				-324.90823	900.01782	-1091.11133				-77.15626	453.66168	-1211.45264	-347.44412	498.22537	-1006.84283				-355.76248	85.12576	-958.02441	
213	2.120																												-524.05090	1135.14893	-1192.51904	10.08147	954.55017	-1120.47046	-507.09009	990.95935	-1004.26288				-324.72952	900.13422	-1086.22510				-77.06928	453.55899	-1207.08289	-347.88348	496.17865	-1001.48944				-355.42990	83.51880	-952.98846	
214	2.130																												-525.52026	1134.60010	-1186.04065	8.62964	954.28333	-1114.83289	-509.50439	990.89069	-998.37445				-325.50171	899.68909	-1075.53833				-78.17077	451.61932	-1202.75232	-348.05630	494.49768	-997.10229				-353.91626	83.60604	-946.58350	
215	2.140																												-526.78088	1133.47290	-1179.44934	7.67581	953.07239	-1108.86035	-510.36313	990.06720	-992.49329				-326.32596	899.30286	-1070.63110				-79.13240	450.71722	-1198.29248	-347.23694	492.97845	-991.47046				-353.34717	82.42051	-943.58301	
216	2.150																												-528.15601	1132.57642	-1173.61414	6.49898	952.23676	-1102.30969	-512.20898	989.66785	-986.17627				-327.72635	896.45135	-1064.22803				-79.54323	449.60852	-1193.45996	-347.59006	493.15601	-985.47223				-352.66663	80.89305	-941.72058	
217	2.160																												-529.62140	1132.44617	-1168.02612	5.13816	951.20697	-1096.53577	-513.78290	988.96082	-979.55408				-329.94449	897.14966	-1057.29590				-80.57993	449.24478	-1188.41296	-348.40616	492.62546	-979.33490				-351.15378	79.53329	-940.49084	
218	2.170																												-531.29736	1131.47363	-1160.35168	4.16451	950.06567	-1090.19141	-516.23895	987.50311	-972.22943				-330.01080	896.38275	-1049.40430				-81.64657	447.87192	-1183.45508	-348.00916	491.95200	-971.61816				-349.48691	78.55446	-939.66211	
